<svg width="24" height="24" viewBox="0 0 24 24" fill="none" xmlns="http://www.w3.org/2000/svg">
<path fill-rule="evenodd" clip-rule="evenodd" d="M12 21C16.9706 21 21 16.9706 21 12C21 7.02944 16.9706 3 12 3C7.02944 3 3 7.02944 3 12C3 16.9706 7.02944 21 12 21ZM14.8284 7.75741C15.219 7.36689 15.8521 7.36689 16.2426 7.75741C16.6332 8.14794 16.6332 8.7811 16.2426 9.17162L13.4142 12.0001L16.2426 14.8285C16.6332 15.219 16.6332 15.8522 16.2426 16.2427C15.8521 16.6332 15.219 16.6332 14.8284 16.2427L12 13.4143L9.17157 16.2427C8.78105 16.6332 8.14788 16.6332 7.75736 16.2427C7.36684 15.8522 7.36684 15.219 7.75736 14.8285L10.5858 12.0001L7.75736 9.17162C7.36684 8.7811 7.36684 8.14794 7.75736 7.75741C8.14788 7.36689 8.78105 7.36689 9.17157 7.75741L12 10.5858L14.8284 7.75741Z" fill="#AEB4C2"/>
</svg>
